<svg xmlns="http://www.w3.org/2000/svg" width="82" height="24" viewBox="0 0 82 24" fill="none">
    <g clip-path="url(#clip0_2272_894)">
      <path fill-rule="evenodd" clip-rule="evenodd" d="M78.599 24H3.6012C1.94717 24 0.600098 22.6474 0.600098 21V3C0.600098 1.34663 1.94717 0 3.6012 0H78.599C80.2515 0 81.6001 1.34663 81.6001 3V21C81.6001 22.6474 80.2515 24 78.599 24Z" fill="black"/>
      <path fill-rule="evenodd" clip-rule="evenodd" d="M78.599 0.480299C79.9863 0.480299 81.1218 1.61297 81.1218 3V21C81.1218 22.387 79.9938 23.5197 78.599 23.5197H3.6012C2.2139 23.5197 1.07843 22.387 1.07843 21V3C1.07843 1.61297 2.20645 0.480299 3.6012 0.480299H78.599ZM78.599 0H3.6012C1.94717 0 0.600098 1.35262 0.600098 3V21C0.600098 22.6534 1.94717 24 3.6012 24H78.599C80.2515 24 81.6001 22.6534 81.6001 21V3C81.6001 1.35262 80.2515 0 78.599 0Z" fill="#A6A6A6"/>
      <path d="M43.2714 7.93913C42.7305 7.93913 42.2745 7.7491 41.9139 7.37504C41.5563 7.01145 41.3566 6.5102 41.3655 5.99848C41.3655 5.45234 41.5503 4.99 41.9139 4.62342C42.273 4.24935 42.729 4.05933 43.2699 4.05933C43.8048 4.05933 44.2608 4.24935 44.6274 4.62342C44.991 5.00197 45.1758 5.46431 45.1758 5.99848C45.1698 6.54611 44.985 7.00845 44.6274 7.37354C44.2683 7.7506 43.8123 7.93913 43.2714 7.93913ZM27.1767 7.93913C26.6477 7.93913 26.1887 7.75209 25.8132 7.38252C25.4407 7.01444 25.2515 6.5491 25.2515 5.99997C25.2515 5.45085 25.4407 4.98551 25.8132 4.61743C26.1813 4.24786 26.6402 4.06082 27.1767 4.06082C27.4389 4.06082 27.6938 4.11319 27.9381 4.21943C28.178 4.32267 28.3732 4.46332 28.5178 4.63539L28.5536 4.67878L28.1497 5.07678L28.108 5.02741C27.88 4.75509 27.5745 4.62192 27.1707 4.62192C26.8101 4.62192 26.4957 4.7506 26.2364 5.00496C25.9757 5.26082 25.843 5.59598 25.843 6.00147C25.843 6.40696 25.9757 6.74212 26.2364 6.99798C26.4957 7.25234 26.8101 7.38102 27.1707 7.38102C27.5552 7.38102 27.8785 7.25234 28.1304 6.99798C28.2794 6.84835 28.3718 6.63888 28.4045 6.37404H27.1096V5.81444H28.9604L28.9678 5.86531C28.9812 5.95958 28.9946 6.05683 28.9946 6.14661C28.9946 6.66282 28.8397 7.08027 28.5327 7.3885C28.184 7.75359 27.728 7.93913 27.1767 7.93913ZM48.5762 7.85983H48.0055L46.2576 5.05135L46.2725 5.55708V7.85833H45.7018V4.14012H46.3529L46.3708 4.16855L48.0144 6.81394L47.9995 6.3097V4.14012H48.5762V7.85983ZM38.9828 7.85983H38.4047V4.69973H37.4018V4.14012H39.9842V4.69973H38.9814V7.85983H38.9828ZM36.931 7.85983H36.3543V4.14012H36.931V7.85983ZM33.69 7.85983H33.1133V4.69973H32.1105V4.14012H34.6928V4.69973H33.69V7.85983ZM31.7454 7.85384H29.534V4.14012H31.7454V4.69973H30.1122V5.72017H31.5859V6.27379H30.1122V7.29424H31.7454V7.85384ZM42.3371 6.9905C42.5949 7.24935 42.9078 7.37953 43.2714 7.37953C43.6454 7.37953 43.9509 7.25234 44.2057 6.9905C44.459 6.73613 44.5872 6.40247 44.5872 5.99997C44.5872 5.59748 44.459 5.26232 44.2072 5.00945C43.9494 4.7506 43.635 4.62042 43.2729 4.62042C42.8989 4.62042 42.5934 4.74761 42.3401 5.00945C42.0868 5.26382 41.9586 5.59748 41.9586 5.99997C41.9586 6.40247 42.0853 6.73763 42.3371 6.9905Z" fill="white"/>
      <path fill-rule="evenodd" clip-rule="evenodd" d="M41.3115 13.0534C39.9033 13.0534 38.7619 14.1262 38.7619 15.606C38.7619 17.0723 39.9108 18.1586 41.3115 18.1586C42.7197 18.1586 43.8611 17.0783 43.8611 15.606C43.8611 14.1262 42.7197 13.0534 41.3115 13.0534ZM41.3115 17.1471C40.5411 17.1471 39.878 16.5067 39.878 15.6C39.878 14.6798 40.5426 14.0529 41.3115 14.0529C42.0819 14.0529 42.745 14.6798 42.745 15.6C42.7465 16.5127 42.0819 17.1471 41.3115 17.1471ZM35.7489 13.0534C34.3407 13.0534 33.1993 14.1262 33.1993 15.606C33.1993 17.0723 34.3481 18.1586 35.7489 18.1586C37.157 18.1586 38.2985 17.0783 38.2985 15.606C38.2985 14.1262 37.1555 13.0534 35.7489 13.0534ZM35.7489 17.1471C34.9785 17.1471 34.3154 16.5067 34.3154 15.6C34.3154 14.6798 34.98 14.0529 35.7489 14.0529C36.5193 14.0529 37.1824 14.6798 37.1824 15.6C37.1824 16.5127 36.5193 17.1471 35.7489 17.1471ZM29.1297 13.8329V14.9132H31.7121C31.6331 15.5192 31.4335 15.9666 31.128 16.2733C30.7495 16.6534 30.1654 17.0663 29.1357 17.0663C27.5487 17.0663 26.3074 15.7796 26.3074 14.186C26.3074 12.5925 27.5487 11.3057 29.1357 11.3057C29.9925 11.3057 30.6169 11.6454 31.0803 12.0793L31.8432 11.3132C31.1995 10.6938 30.3427 10.2195 29.1417 10.2195C26.9646 10.2195 25.1377 12 25.1377 14.18C25.1377 16.3661 26.9631 18.1406 29.1417 18.1406C30.3174 18.1406 31.1995 17.7546 31.8969 17.0274C32.6077 16.3137 32.8327 15.3067 32.8327 14.4943C32.8327 14.2414 32.8133 14.014 32.7731 13.8209H29.1282C29.1297 13.8195 29.1297 13.8329 29.1297 13.8329ZM56.2038 14.6738C55.9907 14.1007 55.347 13.0474 54.0267 13.0474C52.7184 13.0474 51.6306 14.0813 51.6306 15.6C51.6306 17.0334 52.7065 18.1526 54.1534 18.1526C55.3157 18.1526 55.9922 17.4389 56.2708 17.0199L55.4081 16.4394C55.122 16.8658 54.7241 17.1456 54.1593 17.1456C53.5886 17.1456 53.1893 16.8853 52.924 16.3721L56.323 14.9581C56.323 14.9596 56.2038 14.6738 56.2038 14.6738ZM52.7378 15.5267C52.7109 14.5406 53.5007 14.0394 54.0655 14.0394C54.511 14.0394 54.882 14.2594 55.0087 14.5796L52.7378 15.5267ZM49.9766 18H51.0927V10.5007H49.9766V18ZM48.1437 13.6204H48.1035C47.8516 13.3197 47.3733 13.0474 46.7624 13.0474C45.4943 13.0474 44.326 14.1681 44.326 15.6075C44.326 17.0409 45.4883 18.1481 46.7624 18.1481C47.3659 18.1481 47.8516 17.8743 48.1035 17.5676H48.1437V17.9342C48.1437 18.9082 47.6251 19.4334 46.7892 19.4334C46.1052 19.4334 45.6805 18.9396 45.5077 18.5267L44.5376 18.9337C44.8163 19.607 45.5598 20.4404 46.7877 20.4404C48.096 20.4404 49.2047 19.6668 49.2047 17.78V13.2H48.1497V13.6204C48.1512 13.6204 48.1437 13.6204 48.1437 13.6204ZM46.8622 17.1471C46.0918 17.1471 45.4481 16.5007 45.4481 15.6075C45.4481 14.7067 46.0918 14.0544 46.8622 14.0544C47.6251 14.0544 48.2167 14.7142 48.2167 15.6075C48.2242 16.5007 47.6266 17.1471 46.8622 17.1471ZM61.4296 10.5007H58.7608V18H59.8769V15.1601H61.4311C62.6664 15.1601 63.8809 14.2608 63.8809 12.8334C63.8809 11.406 62.6709 10.5007 61.4296 10.5007ZM61.4624 14.1127H59.8754V11.5392H61.4624C62.2984 11.5392 62.7708 12.2319 62.7708 12.8259C62.7708 13.414 62.2924 14.1127 61.4624 14.1127ZM68.3542 13.0399C67.5436 13.0399 66.7077 13.4005 66.362 14.186L67.3514 14.599C67.5645 14.186 67.9549 14.0454 68.3677 14.0454C68.9458 14.0454 69.53 14.3925 69.5434 15.012V15.0913C69.3437 14.9776 68.9056 14.804 68.3811 14.804C67.3126 14.804 66.2293 15.3905 66.2293 16.4903C66.2293 17.4973 67.1055 18.1436 68.0816 18.1436C68.8311 18.1436 69.2438 17.804 69.5016 17.4105H69.5419V17.991H70.6177V15.1182C70.6177 13.7805 69.6283 13.0399 68.3542 13.0399ZM68.2142 17.1471C67.8491 17.1471 67.338 16.9676 67.338 16.5067C67.338 15.9262 67.9758 15.7062 68.5196 15.7062C69.0114 15.7062 69.2439 15.8125 69.5359 15.9591C69.4554 16.6324 68.8892 17.1411 68.2142 17.1471ZM74.5427 13.2L73.2612 16.4529H73.221L71.8933 13.2H70.6922L72.6845 17.7471L71.5491 20.2743H72.7114L75.7765 13.2H74.5427ZM64.4963 18H65.6124V10.5007H64.4963V18Z" fill="white"/>
      <path fill-rule="evenodd" clip-rule="evenodd" d="M6.8347 4.52017C6.66185 4.7072 6.56201 4.99298 6.56201 5.36705V18.6344C6.56201 19.0084 6.66185 19.2942 6.84066 19.4738L6.88686 19.5142L14.2898 12.0808V11.9147L6.8809 4.47977L6.8347 4.52017Z" fill="url(#paint0_linear_2272_894)"/>
      <path fill-rule="evenodd" clip-rule="evenodd" d="M16.7528 14.5661L14.2837 12.0868V11.9132L16.7528 9.43393L16.8065 9.46685L19.7271 11.1337C20.5631 11.6065 20.5631 12.3875 19.7271 12.8663L16.8065 14.5332L16.7528 14.5661Z" fill="url(#paint1_linear_2272_894)"/>
      <path fill-rule="evenodd" clip-rule="evenodd" d="M16.8064 14.5332L14.2836 12L6.83447 19.4798C7.10716 19.7731 7.56463 19.806 8.07574 19.5202L16.8064 14.5332Z" fill="url(#paint2_linear_2272_894)"/>
      <path fill-rule="evenodd" clip-rule="evenodd" d="M16.8064 9.46684L8.07574 4.48729C7.56463 4.19402 7.10567 4.23442 6.83447 4.52769L14.2836 12L16.8064 9.46684Z" fill="url(#paint3_linear_2272_894)"/>
      <path opacity="0.2" fill-rule="evenodd" clip-rule="evenodd" d="M16.7532 14.4793L8.0821 19.426C7.59781 19.7058 7.16567 19.6863 6.88701 19.4319L6.84082 19.4783L6.88701 19.5187C7.16567 19.7716 7.59781 19.7925 8.0821 19.5127L16.8128 14.5332L16.7532 14.4793Z" fill="black"/>
      <path opacity="0.12" fill-rule="evenodd" clip-rule="evenodd" d="M19.7273 12.7796L16.7456 14.4793L16.7992 14.5332L19.7199 12.8663C20.1386 12.6269 20.3442 12.3127 20.3442 12C20.3189 12.2873 20.1058 12.5596 19.7273 12.7796Z" fill="black"/>
      <path opacity="0.25" fill-rule="evenodd" clip-rule="evenodd" d="M8.07597 4.57409L19.7272 11.2205C20.1057 11.4344 20.3188 11.7142 20.3516 12C20.3516 11.6873 20.146 11.3731 19.7272 11.1337L8.07597 4.48731C7.24002 4.00701 6.56201 4.40801 6.56201 5.36711V5.45389C6.56201 4.49329 7.24002 4.09978 8.07597 4.57409Z" fill="white"/>
    </g>
    <defs>
      <linearGradient id="paint0_linear_2272_894" x1="13.6258" y1="5.22391" x2="1.76111" y2="8.37229" gradientUnits="userSpaceOnUse">
        <stop stop-color="#00A0FF"/>
        <stop offset="0.00657" stop-color="#00A1FF"/>
        <stop offset="0.2601" stop-color="#00BEFF"/>
        <stop offset="0.5122" stop-color="#00D2FF"/>
        <stop offset="0.7604" stop-color="#00DFFF"/>
        <stop offset="1" stop-color="#00E3FF"/>
      </linearGradient>
      <linearGradient id="paint1_linear_2272_894" x1="20.8173" y1="12" x2="6.35866" y2="12" gradientUnits="userSpaceOnUse">
        <stop stop-color="#FFE000"/>
        <stop offset="0.4087" stop-color="#FFBD00"/>
        <stop offset="0.7754" stop-color="#FFA500"/>
        <stop offset="1" stop-color="#FF9C00"/>
      </linearGradient>
      <linearGradient id="paint2_linear_2272_894" x1="15.4346" y1="13.3784" x2="5.85691" y2="29.4323" gradientUnits="userSpaceOnUse">
        <stop stop-color="#FF3A44"/>
        <stop offset="1" stop-color="#C31162"/>
      </linearGradient>
      <linearGradient id="paint3_linear_2272_894" x1="4.9587" y1="0.107283" x2="9.2317" y2="7.27722" gradientUnits="userSpaceOnUse">
        <stop stop-color="#32A071"/>
        <stop offset="0.0685" stop-color="#2DA771"/>
        <stop offset="0.4762" stop-color="#15CF74"/>
        <stop offset="0.8009" stop-color="#06E775"/>
        <stop offset="1" stop-color="#00F076"/>
      </linearGradient>
      <clipPath id="clip0_2272_894">
        <rect width="81" height="24" fill="white" transform="translate(0.600098)"/>
      </clipPath>
    </defs>
  </svg>