<svg xmlns="http://www.w3.org/2000/svg" width="80" height="24" viewBox="0 0 80 24" fill="none">
    <path d="M74.3568 0H4.9984C4.8176 0 4.6368 0 4.4544 0C4.0566 0.00578432 3.65978 0.0410813 3.2672 0.1056C2.87716 0.171659 2.49948 0.296832 2.1472 0.4768C1.79285 0.657962 1.46895 0.893328 1.1872 1.1744C0.905502 1.45561 0.670059 1.77962 0.4896 2.1344C0.307447 2.49169 0.181179 2.87482 0.1152 3.2704C0.0488884 3.66221 0.0135789 4.05864 0.0096 4.456C0 4.64 0 4.8192 0 5.0016V19C0 19.184 0 19.3632 0.0096 19.5472C0.0137178 19.9446 0.0490263 20.341 0.1152 20.7328C0.180607 21.1228 0.305247 21.5005 0.4848 21.8528C0.847749 22.5694 1.42792 23.1529 2.1424 23.52C2.49484 23.7003 2.8724 23.8265 3.2624 23.8944C3.65502 23.9584 4.05184 23.9932 4.4496 23.9984C4.632 23.9984 4.8128 23.9984 4.9936 23.9984H74.9936C75.1744 23.9984 75.3584 23.9984 75.5392 23.9984C75.9359 23.9935 76.3317 23.9587 76.7232 23.8944C77.1167 23.8262 77.4979 23.7001 77.8544 23.52C78.2099 23.3407 78.5341 23.1052 78.8144 22.8224C79.0975 22.5417 79.3341 22.2176 79.5152 21.8624C79.693 21.5096 79.8166 21.1321 79.8816 20.7424C79.9478 20.3505 79.9847 19.9542 79.992 19.5568C79.992 19.3728 79.992 19.1936 79.992 19.0096C79.992 18.7952 79.992 18.5808 79.992 18.3696V5.648C79.992 5.4304 79.992 5.216 79.992 5.008C79.992 4.8256 79.992 4.6432 79.992 4.4624C79.9848 4.065 79.9479 3.66869 79.8816 3.2768C79.8159 2.8873 79.6924 2.5098 79.5152 2.1568C79.1526 1.43811 78.5733 0.851543 77.8592 0.48C77.5026 0.301878 77.1213 0.178365 76.728 0.1136C76.3365 0.0487304 75.9408 0.0134306 75.544 0.008C75.3632 0.008 75.1792 0.008 74.9984 0.008L74.3568 0Z" fill="#B6B6B6"/>
    <path d="M5.00175 23.4816C4.82095 23.4816 4.64495 23.4816 4.46575 23.4816C4.09483 23.4768 3.72477 23.4447 3.35855 23.3856C3.01768 23.3277 2.6872 23.2198 2.37775 23.0656C1.76297 22.7505 1.26223 22.2509 0.945755 21.6368C0.790011 21.3274 0.682116 20.9961 0.625755 20.6544C0.564576 20.2873 0.531945 19.9161 0.528155 19.544C0.528155 19.4192 0.518555 19.0032 0.518555 19.0032V5.00157C0.518555 5.00157 0.518555 4.59197 0.528155 4.47197C0.530922 4.09936 0.563021 3.72754 0.624155 3.35997C0.679787 3.017 0.787709 2.6846 0.944155 2.37437C1.09967 2.06909 1.30335 1.79086 1.54735 1.55037C1.79105 1.30642 2.0712 1.10184 2.37775 0.943967C2.68651 0.789401 3.01651 0.681557 3.35695 0.623967C3.72411 0.563588 4.0953 0.530962 4.46735 0.526367H5.00175H74.9954H75.5362C75.905 0.529523 76.2731 0.561622 76.637 0.622367C76.9808 0.678773 77.3141 0.78665 77.6258 0.942367C78.242 1.26022 78.7424 1.76405 79.0562 2.38237C79.2115 2.69024 79.3194 3.01983 79.3762 3.35997C79.4376 3.7303 79.4718 4.10463 79.4786 4.47997C79.4786 4.64797 79.4786 4.82877 79.4786 5.00797C79.4786 5.23037 79.4786 5.44157 79.4786 5.64797V18.352C79.4786 18.568 79.4786 18.7776 79.4786 18.992C79.4786 19.2064 79.4786 19.3616 79.4786 19.544C79.4728 19.9119 79.4391 20.2788 79.3778 20.6416C79.323 20.9858 79.2151 21.3194 79.0578 21.6304C78.74 22.2421 78.2402 22.7402 77.6274 23.056C77.3163 23.2119 76.9835 23.3198 76.6402 23.376C76.274 23.4354 75.9039 23.4675 75.533 23.472C75.3602 23.472 75.1778 23.472 75.0018 23.472H5.00175V23.4816Z" fill="black"/>
    <path d="M29.6944 16.2016H26.88L26.1968 18.08H24.96L27.712 11.0624H28.88L31.6944 18.08H30.4L29.6944 16.2016ZM27.2384 15.2416H29.3344L28.584 13.232C28.4816 12.9552 28.3792 12.648 28.28 12.312C28.1888 12.6096 28.0896 12.912 27.984 13.2224L27.2384 15.2416Z" fill="white"/>
    <path d="M32.1922 14.1328C32.1922 13.7456 32.1794 13.3189 32.1538 12.8528H33.2738C33.3159 13.0722 33.3447 13.2939 33.3602 13.5168C33.5562 13.2819 33.8006 13.0923 34.0768 12.9608C34.353 12.8293 34.6544 12.7592 34.9602 12.7552C35.3188 12.7495 35.671 12.8509 35.9717 13.0465C36.2724 13.242 36.5079 13.5227 36.6482 13.8528C36.845 14.3066 36.9385 14.7985 36.9218 15.2928C36.934 15.8318 36.8246 16.3666 36.6018 16.8576C36.4154 17.2651 36.1111 17.6073 35.7282 17.84C35.3342 18.0677 34.8855 18.1833 34.4306 18.1744C34.0726 18.1742 33.7172 18.1136 33.3794 17.9952V20.16L32.1826 20.2624L32.1922 14.1328ZM35.3378 16.8C35.581 16.48 35.7042 16 35.7042 15.36C35.7042 14.7765 35.6029 14.3499 35.4002 14.08C35.3086 13.9546 35.188 13.8532 35.0487 13.7847C34.9093 13.7161 34.7554 13.6824 34.6002 13.6864C34.3766 13.6834 34.1561 13.7385 33.9602 13.8464C33.7521 13.9643 33.5628 14.1126 33.3986 14.2864V17.0864C33.5312 17.1489 33.6709 17.1951 33.8146 17.224C33.9692 17.2574 34.1269 17.2746 34.285 17.2752C34.4859 17.2872 34.6866 17.2503 34.87 17.1675C35.0534 17.0847 35.214 16.9586 35.3378 16.8V16.8Z" fill="white"/>
    <path d="M37.6497 14.1328C37.6497 13.7456 37.6369 13.3189 37.6113 12.8528H38.7313C38.7747 13.072 38.8041 13.2938 38.8193 13.5168C39.2855 13.0091 39.8188 12.7552 40.4193 12.7552C40.7779 12.7495 41.1301 12.8509 41.4308 13.0465C41.7315 13.242 41.967 13.5227 42.1073 13.8528C42.3042 14.3066 42.3976 14.7985 42.3809 15.2928C42.3956 15.8312 42.289 16.366 42.0689 16.8576C41.8821 17.2653 41.5772 17.6075 41.1937 17.84C40.7998 18.0679 40.3511 18.1835 39.8961 18.1744C39.5381 18.1742 39.1828 18.1136 38.8449 17.9952V20.16L37.6481 20.2624L37.6497 14.1328ZM40.8001 16.8C41.0433 16.4725 41.1649 15.9925 41.1649 15.36C41.1649 14.7765 41.0641 14.3499 40.8625 14.08C40.771 13.9546 40.6503 13.8532 40.511 13.7847C40.3717 13.7161 40.2178 13.6824 40.0625 13.6864C39.839 13.6837 39.6185 13.7388 39.4225 13.8464C39.2144 13.9643 39.0252 14.1126 38.8609 14.2864V17.0864C38.9937 17.1484 39.1333 17.1946 39.2769 17.224C39.4315 17.2574 39.5892 17.2746 39.7473 17.2752C39.9481 17.287 40.1488 17.2499 40.3322 17.1671C40.5155 17.0843 40.6761 16.9584 40.8001 16.8V16.8Z" fill="white"/>
    <path d="M44.5809 17.7488C44.0696 17.4684 43.6543 17.0408 43.3889 16.5216C43.0988 15.9349 42.956 15.2863 42.9729 14.632C42.9522 13.932 43.1178 13.239 43.4529 12.624C43.7555 12.0903 44.21 11.6587 44.7585 11.384C45.335 11.1023 45.9698 10.9604 46.6113 10.9696C47.0004 10.9679 47.3883 11.013 47.7665 11.104C48.1203 11.1873 48.4638 11.3097 48.7905 11.4688L48.4801 12.3888C47.9142 12.1033 47.2915 11.9481 46.6577 11.9344C46.2104 11.9269 45.7689 12.0373 45.3777 12.2544C45.0065 12.4675 44.7082 12.7875 44.5217 13.1728C44.3073 13.6297 44.2031 14.1307 44.2177 14.6352C44.2098 15.0898 44.2891 15.5417 44.4513 15.9664C44.5987 16.3423 44.8578 16.664 45.1937 16.888C45.5765 17.1275 46.0226 17.2457 46.4737 17.2272C46.7075 17.2266 46.9408 17.2068 47.1713 17.168C47.3944 17.1325 47.6135 17.0758 47.8257 16.9984V15.5712H46.2033V14.6416H48.9889V17.6C48.5848 17.7883 48.1616 17.9326 47.7265 18.0304C47.2952 18.1298 46.854 18.1802 46.4113 18.1808C45.7743 18.1961 45.1439 18.0473 44.5809 17.7488V17.7488Z" fill="white"/>
    <path d="M53.2401 18.08C53.1949 17.8515 53.167 17.6199 53.1569 17.3872C52.957 17.6198 52.7128 17.8101 52.4385 17.9472C52.1288 18.1041 51.7856 18.1832 51.4385 18.1776C51.1545 18.1812 50.8733 18.1205 50.6161 18C50.3714 17.8853 50.1668 17.6996 50.0289 17.4672C49.8761 17.2038 49.8001 16.9028 49.8097 16.5984C49.8007 16.3675 49.8457 16.1377 49.9409 15.9272C50.0362 15.7167 50.1792 15.5313 50.3585 15.3856C50.7233 15.0827 51.3318 14.9317 52.1841 14.9328C52.5016 14.9327 52.8186 14.9551 53.1329 15V14.8976C53.1329 14.4368 53.0348 14.1115 52.8385 13.9216C52.6039 13.7197 52.2994 13.618 51.9905 13.6384C51.7139 13.6418 51.4387 13.6794 51.1713 13.7504C50.9064 13.8143 50.6482 13.9032 50.4001 14.016L50.2113 13.1456C50.4827 13.0298 50.7645 12.9403 51.0529 12.8784C51.4157 12.7964 51.7866 12.7556 52.1585 12.7568C52.5526 12.746 52.9447 12.8163 53.3105 12.9632C53.6323 13.1055 53.8943 13.3556 54.0513 13.6704C54.2477 14.0919 54.3393 14.5547 54.3185 15.0192V17.0992C54.3185 17.3125 54.3313 17.64 54.3569 18.0816L53.2401 18.08ZM52.5233 17.12C52.7539 17.0128 52.9611 16.8611 53.1329 16.6736V15.7136C52.8673 15.6822 52.6003 15.6646 52.3329 15.6608C51.839 15.6608 51.4972 15.7408 51.3073 15.9008C51.2147 15.9791 51.1411 16.0773 51.092 16.1882C51.043 16.2991 51.0197 16.4196 51.0241 16.5408C51.0155 16.6455 51.0294 16.7508 51.065 16.8497C51.1006 16.9485 51.1571 17.0385 51.2305 17.1136C51.3865 17.2451 51.5868 17.3121 51.7905 17.3008C52.0453 17.297 52.2959 17.2351 52.5233 17.12V17.12Z" fill="white"/>
    <path d="M55.2432 16.8256V10.6496L56.4336 10.5536V16.6128C56.4166 16.781 56.4566 16.95 56.5472 17.0928C56.5929 17.142 56.6492 17.18 56.7119 17.2042C56.7745 17.2283 56.8419 17.2378 56.9088 17.232C57.0173 17.2273 57.1248 17.209 57.2288 17.1776L57.3696 18.0352C57.2356 18.0858 57.0967 18.1222 56.9552 18.144C56.8024 18.1705 56.6478 18.1844 56.4928 18.1856C55.6597 18.1803 55.2432 17.7269 55.2432 16.8256Z" fill="white"/>
    <path d="M58.2207 16.8256V10.6496L59.4127 10.5536V16.6128C59.3958 16.781 59.4358 16.95 59.5263 17.0928C59.572 17.142 59.6284 17.18 59.691 17.2042C59.7537 17.2283 59.821 17.2378 59.8879 17.232C59.9964 17.2273 60.1039 17.209 60.2079 17.1776L60.3471 18.0352C60.2137 18.0858 60.0753 18.1222 59.9343 18.144C59.781 18.1706 59.6258 18.1845 59.4703 18.1856C58.6383 18.1803 58.2218 17.7269 58.2207 16.8256Z" fill="white"/>
    <path d="M65.243 15.6192H61.8238C61.8782 16.7147 62.3998 17.2624 63.3886 17.2624C63.6424 17.2611 63.8952 17.231 64.1423 17.1728C64.3945 17.1141 64.6413 17.0338 64.8798 16.9328L65.1422 17.752C64.5262 18.0423 63.852 18.1879 63.171 18.1776C62.6832 18.1917 62.1998 18.0816 61.7663 17.8576C61.3906 17.6546 61.0891 17.3375 60.9055 16.952C60.7024 16.5054 60.6039 16.0184 60.6174 15.528C60.6042 15.0141 60.7087 14.504 60.923 14.0368C61.1058 13.6403 61.4013 13.3064 61.7726 13.0768C62.1532 12.8526 62.5886 12.7385 63.0302 12.7472C63.4686 12.7317 63.9008 12.8531 64.267 13.0944C64.5973 13.3236 64.8532 13.6446 65.003 14.0176C65.1678 14.4239 65.2494 14.8592 65.243 15.2976V15.6192ZM64.0766 14.8592C64.0789 14.5195 63.9661 14.189 63.7566 13.9216C63.6627 13.8164 63.5468 13.7332 63.4171 13.6779C63.2874 13.6226 63.1472 13.5966 63.0063 13.6016C62.8645 13.5987 62.7236 13.6257 62.593 13.6808C62.4623 13.7359 62.3447 13.818 62.2478 13.9216C62.0222 14.1844 61.8841 14.511 61.8526 14.856L64.0766 14.8592Z" fill="white"/>
    <path d="M66.1489 14.1664C66.1489 13.88 66.1345 13.4416 66.1089 12.8544H67.2289C67.2481 13 67.2657 13.1744 67.2849 13.3744C67.3041 13.5744 67.3137 13.7408 67.3201 13.8672C67.4406 13.6632 67.5776 13.4695 67.7297 13.288C67.8618 13.1328 68.0212 13.0032 68.2001 12.9056C68.3881 12.8041 68.5992 12.7528 68.8129 12.7568C68.9749 12.7528 69.1367 12.7728 69.2929 12.816L69.1425 13.8528C68.9551 13.7985 68.7584 13.7848 68.5653 13.8123C68.3722 13.8399 68.1872 13.9082 68.0225 14.0128C67.7577 14.2096 67.5269 14.4485 67.3393 14.72V18.08H66.1489V14.1664Z" fill="white"/>
    <path d="M69.9587 20.2192C69.8128 20.1956 69.6689 20.1608 69.5283 20.1152L69.7459 19.2432C69.8466 19.2703 69.9486 19.2922 70.0515 19.3088C70.1667 19.3293 70.2834 19.34 70.4003 19.3408C70.9337 19.3408 71.3305 19 71.5907 18.3184L71.6691 18.1248L69.7411 12.8544H71.0211L72.0003 15.8C72.1257 16.1789 72.2272 16.5652 72.3043 16.9568C72.3955 16.5792 72.5011 16.2016 72.6243 15.824L73.6003 12.8544H74.8051L72.8851 18.1488C72.7402 18.5753 72.543 18.9821 72.2979 19.36C72.111 19.6454 71.8559 19.8797 71.5555 20.0416C71.2336 20.1988 70.8784 20.2756 70.5203 20.2656C70.3321 20.2663 70.1442 20.2508 69.9587 20.2192V20.2192Z" fill="white"/>
    <path d="M24.96 4.3808H27.088L27.0288 4.896H25.5808V5.8928H26.9456V6.3728H25.5808V7.4768H27.1056L27.0528 8H24.96V4.3808Z" fill="white"/>
    <path d="M28.5584 6.1536L27.4384 4.3808H28.1488L28.9104 5.6832L29.7104 4.3808H30.4L29.28 6.1312L30.4912 8H29.7712L28.9088 6.576L28.0304 8H27.3408L28.5584 6.1536Z" fill="white"/>
    <path d="M30.9502 4.3808H31.9262C32.3838 4.3808 32.7347 4.47413 32.979 4.6608C33.1005 4.7564 33.1971 4.87993 33.2606 5.02088C33.3241 5.16184 33.3527 5.31605 33.3438 5.4704C33.3506 5.69086 33.2951 5.90878 33.1838 6.0992C33.0752 6.27821 32.9167 6.42166 32.7278 6.512C32.5179 6.61122 32.2879 6.66051 32.0558 6.656C31.8946 6.65372 31.734 6.63712 31.5758 6.6064V8H30.9502V4.3808ZM32.5182 5.9968C32.5865 5.93125 32.6397 5.85167 32.6742 5.76355C32.7087 5.67543 32.7237 5.58088 32.7182 5.4864C32.7263 5.39586 32.7121 5.3047 32.6766 5.22099C32.6412 5.13727 32.5857 5.06357 32.515 5.0064C32.3349 4.89673 32.1254 4.84533 31.915 4.8592H31.5758V6.1392C31.6947 6.16062 31.815 6.17292 31.9358 6.176C32.1456 6.19174 32.3536 6.12775 32.5182 5.9968Z" fill="white"/>
    <path d="M33.9614 4.3808H34.5854V7.4656H36.083L36.0302 8H33.9614V4.3808Z" fill="white"/>
    <path d="M37.0335 7.8224C36.7713 7.67484 36.5594 7.45186 36.4255 7.1824C36.28 6.88373 36.2081 6.55454 36.2159 6.2224C36.2083 5.87531 36.2851 5.53156 36.4399 5.2208C36.5818 4.94067 36.8048 4.70983 37.0799 4.5584C37.3879 4.39711 37.7325 4.31881 38.0799 4.3312C38.4084 4.32238 38.7334 4.40019 39.0223 4.5568C39.283 4.70488 39.4931 4.92785 39.6255 5.1968C39.7682 5.49235 39.8389 5.81748 39.8319 6.1456C39.8406 6.49656 39.7631 6.8443 39.6063 7.1584C39.4631 7.43755 39.2404 7.66803 38.9663 7.8208C38.6638 7.98175 38.3249 8.06219 37.9823 8.0544C37.651 8.06277 37.3235 7.98269 37.0335 7.8224V7.8224ZM38.6527 7.3792C38.8291 7.26232 38.9662 7.09507 39.0463 6.8992C39.1361 6.67498 39.1801 6.43508 39.1759 6.1936C39.1799 5.95654 39.1409 5.72072 39.0607 5.4976C38.9889 5.30434 38.8607 5.13711 38.6927 5.0176C38.4979 4.89838 38.2739 4.8353 38.0455 4.8353C37.8171 4.8353 37.5931 4.89838 37.3983 5.0176C37.2214 5.14031 37.0837 5.31141 37.0015 5.5104C36.9105 5.72537 36.8652 5.95697 36.8687 6.1904C36.8648 6.43089 36.9072 6.66988 36.9935 6.8944C37.0701 7.0998 37.2103 7.27541 37.3936 7.39569C37.5769 7.51596 37.7938 7.57465 38.0127 7.5632C38.2398 7.56878 38.4632 7.50456 38.6527 7.3792V7.3792Z" fill="white"/>
    <path d="M40.5278 4.3808H41.6606C41.9925 4.35731 42.3228 4.44453 42.5998 4.6288C42.7061 4.71225 42.7907 4.8201 42.8464 4.94322C42.9021 5.06634 42.9273 5.20107 42.9198 5.336C42.9236 5.51144 42.884 5.6851 42.8046 5.8416C42.7352 5.97883 42.6383 6.10028 42.5198 6.1984C42.414 6.28388 42.2951 6.35194 42.1678 6.4L43.2878 8H42.5598L41.6174 6.56H41.1582V8H40.5278V4.3808ZM41.5086 6.0928C41.6476 6.09583 41.7853 6.06566 41.9102 6.0048C42.0228 5.95075 42.1177 5.86586 42.1838 5.76C42.2499 5.647 42.2836 5.51806 42.2814 5.3872C42.2879 5.31168 42.2755 5.23574 42.2453 5.1662C42.2151 5.09666 42.1682 5.0357 42.1086 4.9888C41.9586 4.89489 41.7828 4.85066 41.6062 4.8624H41.1534V6.0992L41.5086 6.0928Z" fill="white"/>
    <path d="M43.7759 4.3808H45.9087L45.8479 4.896H44.4079V5.8928H45.7599V6.3728H44.3951V7.4768H45.9199L45.8735 8H43.7759V4.3808Z" fill="white"/>
    <path d="M48.229 4.3808H48.853V8H48.229V4.3808Z" fill="white"/>
    <path d="M50.5053 4.9024H49.3853L49.4397 4.3808H52.2557L52.198 4.9024H51.1309V8H50.5053V4.9024Z" fill="white"/>
    <path d="M54.9681 7.8224C54.7063 7.67475 54.4951 7.45175 54.3617 7.1824C54.2149 6.88414 54.1424 6.55476 54.1505 6.2224C54.1429 5.87531 54.2197 5.53157 54.3745 5.2208C54.5168 4.94097 54.7397 4.71023 55.0145 4.5584C55.3201 4.39632 55.6623 4.31586 56.0081 4.3248C56.3405 4.31585 56.6692 4.39595 56.9601 4.5568C57.2211 4.70441 57.4314 4.92751 57.5633 5.1968C57.7066 5.49222 57.7778 5.81735 57.7713 6.1456C57.7802 6.49677 57.7022 6.84469 57.5441 7.1584C57.4013 7.43789 57.1785 7.6685 56.9041 7.8208C56.6017 7.98216 56.2628 8.06263 55.9201 8.0544C55.5878 8.06335 55.2591 7.98325 54.9681 7.8224V7.8224ZM56.5889 7.3792C56.7644 7.26179 56.9009 7.09465 56.9809 6.8992C57.0707 6.67498 57.1148 6.43509 57.1105 6.1936C57.1145 5.95654 57.0755 5.72073 56.9953 5.4976C56.9241 5.30446 56.7965 5.13721 56.6289 5.0176C56.4338 4.89825 56.2096 4.83509 55.9809 4.83509C55.7522 4.83509 55.528 4.89825 55.3329 5.0176C55.156 5.14032 55.0183 5.31141 54.9361 5.5104C54.8458 5.72561 54.8006 5.95704 54.8033 6.1904C54.7995 6.4309 54.8418 6.66989 54.9281 6.8944C55.0045 7.09177 55.1375 7.26212 55.3105 7.384C55.4999 7.50903 55.7237 7.57168 55.9505 7.5632C56.177 7.56785 56.3996 7.50369 56.5889 7.3792V7.3792Z" fill="white"/>
    <path d="M58.4639 4.3808H59.1807L60.9711 7.1856C60.9551 6.9184 60.9487 6.6736 60.9487 6.448V4.3808H61.5279V8H60.8335L59.0159 5.1504C59.0335 5.4704 59.0431 5.76 59.0431 6.0112V8H58.4639V4.3808Z" fill="white"/>
    <path fill-rule="evenodd" clip-rule="evenodd" d="M16.1601 4.39999H9.5185C6.3873 4.39999 5.2417 5.54559 5.2417 8.67679V15.3232C5.2417 18.4544 6.3873 19.6 9.5185 19.6H16.1601C19.2913 19.6 20.4385 18.4544 20.4385 15.3232V8.67679C20.4417 5.54559 19.2961 4.39999 16.1601 4.39999Z" fill="#C8102E"/>
    <path d="M8.2511 12H8.6543V13.9888H8.2511V13.1808H7.3407V13.9888H6.9375V12H7.3407V12.8H8.2511V12ZM10.5231 13.1376C10.5231 13.4576 10.3631 13.6336 10.0719 13.6336C9.7807 13.6336 9.6175 13.4576 9.6175 13.12V12H9.2143V13.136C9.2143 13.6944 9.5247 14.0144 10.0655 14.0144C10.6063 14.0144 10.9263 13.6944 10.9263 13.1184V12H10.5231V13.1376ZM15.1823 13.3664L14.7311 12H14.3999L13.9519 13.368L13.5119 12H13.0831L13.7759 13.9888H14.1103L14.5599 12.6832L15.0111 13.9888H15.3487L16.0415 12H15.6223L15.1823 13.3664ZM16.7631 13.1312H17.4975V12.7712H16.7631V12.3648H17.8287V12H16.3663V13.984H17.8671V13.6256H16.7631V13.1312ZM18.3471 13.984H18.7455V12H18.3471V13.984ZM11.7231 13.5728L11.5423 13.9856H11.1311L11.9999 12H12.3551L13.2271 13.9856H12.8111L12.6399 13.5744L11.7231 13.5728ZM11.8735 13.2144H12.4799L12.1759 12.504L11.8735 13.2144Z" fill="white"/>
    <path d="M12.8416 9.47039C12.1709 9.46997 11.5277 9.20332 11.0534 8.72902C10.5791 8.25472 10.3124 7.61156 10.312 6.9408H10.6688C10.6688 7.51706 10.8977 8.06972 11.3052 8.4772C11.7127 8.88468 12.2654 9.1136 12.8416 9.1136C13.4179 9.1136 13.9705 8.88468 14.378 8.4772C14.7855 8.06972 15.0144 7.51706 15.0144 6.9408H15.3712C15.3708 7.61156 15.1041 8.25472 14.6298 8.72902C14.1555 9.20332 13.5124 9.46997 12.8416 9.47039V9.47039Z" fill="white"/>
  </svg>