<svg xmlns="http://www.w3.org/2000/svg" width="81" height="24" viewBox="0 0 81 24" fill="none">
    <path d="M73.8699 -4.40703e-05H7.04274C6.79914 -4.40703e-05 6.55847 -4.40703e-05 6.31552 0.00115593C6.11215 0.00235593 5.9104 0.00584193 5.70508 0.00877593C5.25902 0.013517 4.81401 0.0489617 4.37392 0.114802C3.93444 0.182076 3.50873 0.308905 3.11119 0.491002C2.71413 0.674639 2.35133 0.913256 2.03594 1.1982C1.7189 1.48234 1.45462 1.81077 1.25327 2.17085C1.05136 2.53022 0.911353 2.91532 0.838088 3.31284C0.764127 3.70987 0.724328 4.11147 0.719048 4.51404C0.712884 4.698 0.712233 4.88258 0.708984 5.06656V18.9351C0.712233 19.1214 0.712884 19.3019 0.719048 19.4883C0.72433 19.8908 0.764129 20.2924 0.838088 20.6894C0.91115 21.0872 1.05116 21.4725 1.25327 21.832C1.45453 22.1909 1.71885 22.518 2.03594 22.8006C2.35013 23.0868 2.71317 23.3255 3.11119 23.5078C3.50873 23.6904 3.93439 23.8179 4.37392 23.8863C4.81408 23.9516 5.25905 23.987 5.70508 23.9923C5.9104 23.9964 6.11215 23.9988 6.31552 23.9988C6.55847 24 6.79916 24 7.04274 24H73.8699C74.1087 24 74.3513 24 74.59 23.9988C74.7924 23.9988 75 23.9964 75.2024 23.9923C75.6476 23.9873 76.0917 23.9519 76.531 23.8863C76.9719 23.8175 77.3991 23.6899 77.7986 23.5078C78.1962 23.3254 78.559 23.0867 78.8729 22.8006C79.1892 22.5169 79.454 22.19 79.6578 21.832C79.8584 21.4722 79.9971 21.0869 80.0691 20.6894C80.1431 20.2923 80.1843 19.8908 80.1923 19.4883C80.1949 19.3019 80.1949 19.1214 80.1949 18.9351C80.2001 18.7171 80.2001 18.5004 80.2001 18.2788V5.72163C80.2001 5.50191 80.2001 5.28394 80.1949 5.06656C80.1949 4.88258 80.1949 4.698 80.1923 4.51402C80.1843 4.11141 80.1431 3.7099 80.0691 3.31282C79.9969 2.91553 79.8582 2.53046 79.6578 2.17083C79.2477 1.44907 78.5975 0.861571 77.7986 0.490948C77.3991 0.309296 76.9719 0.1825 76.531 0.114748C76.0918 0.0486176 75.6476 0.0131606 75.2024 0.00869193C75 0.00576393 74.7924 0.00224793 74.59 0.00107793C74.3513 -0.00012207 74.1087 -0.00012207 73.8699 -0.00012207V-4.40703e-05Z" fill="#A6A6A6"/>
    <path d="M6.31891 23.475C6.11652 23.475 5.91901 23.4727 5.71821 23.4686C5.30222 23.4637 4.8872 23.431 4.47656 23.3707C4.09366 23.3112 3.72274 23.2004 3.37602 23.042C3.03248 22.8849 2.71914 22.679 2.44801 22.432C2.17295 22.188 1.94396 21.905 1.7701 21.5941C1.59432 21.2813 1.47267 20.946 1.40939 20.5998C1.34105 20.2279 1.30408 19.8518 1.29879 19.4748C1.29458 19.3483 1.28906 18.927 1.28906 18.927V5.06663C1.28906 5.06663 1.29493 4.65178 1.29882 4.5299C1.30389 4.15351 1.34065 3.77802 1.40878 3.40666C1.47218 3.05957 1.59392 2.72327 1.76979 2.4094C1.94302 2.09879 2.17074 1.81554 2.44414 1.57063C2.71723 1.3234 3.03157 1.11639 3.37569 0.95715C3.72161 0.799281 4.09184 0.689264 4.47397 0.630786C4.88596 0.569926 5.30241 0.537022 5.71984 0.53235L6.31924 0.525024H74.5869L75.1935 0.532644C75.6071 0.537084 76.0198 0.569694 76.428 0.630198C76.814 0.689409 77.1881 0.800194 77.538 0.958908C78.2274 1.27982 78.7883 1.78752 79.1422 2.41087C79.3153 2.72257 79.4351 3.05613 79.4977 3.40022C79.5667 3.77462 79.6053 4.15307 79.6132 4.53254C79.6151 4.70246 79.6151 4.88498 79.6151 5.06663C79.6204 5.29163 79.6204 5.50579 79.6204 5.7217V18.2789C79.6204 18.4969 79.6204 18.7096 79.6151 18.924C79.6151 19.1191 79.6151 19.2979 79.6125 19.4818C79.6048 19.8546 79.5668 20.2262 79.499 20.5939C79.437 20.9426 79.316 21.2805 79.1403 21.5959C78.9652 21.9034 78.7375 22.184 78.4656 22.4274C78.1943 22.6756 77.8804 22.8828 77.536 23.0409C77.1871 23.2005 76.8136 23.3117 76.428 23.3707C76.0174 23.4313 75.6023 23.464 75.1863 23.4686C74.9917 23.4727 74.788 23.475 74.5902 23.475L73.8701 23.4762L6.31891 23.475Z" fill="black"/>
    <path d="M17.1627 12.1804C17.1698 11.6796 17.3171 11.1886 17.5908 10.753C17.8645 10.3175 18.2557 9.95149 18.7281 9.68919C18.428 9.30209 18.0321 8.98353 17.5719 8.7588C17.1116 8.53406 16.5997 8.40936 16.0768 8.39458C14.9613 8.28882 13.8799 8.99748 13.3115 8.99748C12.732 8.99748 11.8568 8.40508 10.9144 8.42259C10.3048 8.44038 9.71068 8.60049 9.18996 8.88733C8.66924 9.17416 8.23966 9.57794 7.94308 10.0593C6.65835 12.0684 7.61665 15.021 8.84731 16.645C9.46303 17.4402 10.1826 18.3284 11.1242 18.2969C12.0456 18.2624 12.3898 17.7663 13.502 17.7663C14.6039 17.7663 14.9267 18.2969 15.8874 18.2769C16.8761 18.2624 17.4991 17.4782 18.0932 16.6754C18.5356 16.1088 18.876 15.4826 19.1019 14.8199C18.5274 14.6005 18.0373 14.2332 17.6924 13.7638C17.3476 13.2944 17.1633 12.7437 17.1627 12.1804V12.1804Z" fill="white"/>
    <path d="M15.348 7.32652C15.8871 6.74199 16.1527 5.99069 16.0884 5.23215C15.2648 5.31028 14.504 5.66581 13.9577 6.22791C13.6905 6.50251 13.4859 6.82197 13.3556 7.16804C13.2252 7.5141 13.1716 7.87997 13.1979 8.24475C13.6099 8.24858 14.0174 8.16793 14.3898 8.00888C14.7623 7.84983 15.0899 7.61652 15.348 7.32652Z" fill="white"/>
    <path d="M28.8099 16.2838H25.6655L24.9104 18.2976H23.5786L26.5569 10.8468H27.9406L30.9188 18.2976H29.5643L28.8099 16.2838ZM25.9912 15.3545H28.4836L27.2549 12.0861H27.2205L25.9912 15.3545Z" fill="white"/>
    <path d="M37.3508 15.5818C37.3508 17.2699 36.3505 18.3545 34.8409 18.3545C34.4585 18.3726 34.0782 18.293 33.7436 18.1249C33.4089 17.9568 33.1334 17.707 32.9486 17.4041H32.9201V20.0947H31.6855V12.8654H32.8805V13.7689H32.9032C33.0965 13.4675 33.3766 13.2189 33.7138 13.0498C34.0511 12.8807 34.4327 12.7974 34.8182 12.8086C36.3446 12.8086 37.3508 13.8984 37.3508 15.5818ZM36.0819 15.5818C36.0819 14.482 35.4527 13.759 34.4926 13.759C33.5493 13.759 32.9149 14.4973 32.9149 15.5818C32.9149 16.6764 33.5493 17.4094 34.4926 17.4094C35.4527 17.4094 36.0819 16.6916 36.0819 15.5818Z" fill="white"/>
    <path d="M43.9704 15.5818C43.9704 17.2699 42.9701 18.3545 41.4606 18.3545C41.0782 18.3726 40.6979 18.293 40.3632 18.1249C40.0285 17.9568 39.753 17.707 39.5683 17.4041H39.5397V20.0947H38.3052V12.8654H39.5001V13.7689H39.5228C39.7161 13.4675 39.9962 13.2189 40.3335 13.0498C40.6707 12.8807 41.0523 12.7974 41.4378 12.8086C42.9643 12.8086 43.9704 13.8984 43.9704 15.5818ZM42.7015 15.5818C42.7015 14.482 42.0723 13.759 41.1122 13.759C40.169 13.759 39.5345 14.4973 39.5345 15.5818C39.5345 16.6764 40.169 17.4094 41.1122 17.4094C42.0723 17.4094 42.7016 16.6916 42.7016 15.5818H42.7015Z" fill="white"/>
    <path d="M48.3453 16.2217C48.4367 16.9606 49.2314 17.4457 50.3174 17.4457C51.3579 17.4457 52.1065 16.9605 52.1065 16.2943C52.1065 15.716 51.655 15.3697 50.5859 15.1324L49.5169 14.8998C48.0021 14.5693 47.2989 13.9295 47.2989 12.8912C47.2989 11.6056 48.5392 10.7226 50.3005 10.7226C52.0436 10.7226 53.2385 11.6056 53.2788 12.8912H52.0326C51.958 12.1476 51.2774 11.6988 50.283 11.6988C49.2885 11.6988 48.608 12.1529 48.608 12.8138C48.608 13.3406 49.0426 13.6506 50.1059 13.8878L51.0147 14.0894C52.7072 14.4509 53.4104 15.065 53.4104 16.1548C53.4104 17.5488 52.1811 18.4218 50.2259 18.4218C48.3965 18.4218 47.1613 17.5693 47.0815 16.2216L48.3453 16.2217Z" fill="white"/>
    <path d="M56.0748 11.5799V12.8654H57.2185V13.7484H56.0748V16.7431C56.0748 17.2084 56.3038 17.4252 56.8065 17.4252C56.9423 17.423 57.0779 17.4144 57.2126 17.3994V18.2771C56.9866 18.3153 56.7568 18.3325 56.5269 18.3287C55.3093 18.3287 54.8344 17.9156 54.8344 16.8621V13.7484H53.96V12.8654H54.8344V11.5799H56.0748Z" fill="white"/>
    <path d="M57.8809 15.5818C57.8809 13.8726 58.9953 12.7986 60.7333 12.7986C62.477 12.7986 63.5863 13.8726 63.5863 15.5818C63.5863 17.2957 62.4829 18.365 60.7333 18.365C58.9843 18.365 57.8809 17.2957 57.8809 15.5818ZM62.3285 15.5818C62.3285 14.4094 61.7336 13.7174 60.7333 13.7174C59.7329 13.7174 59.1387 14.4146 59.1387 15.5818C59.1387 16.759 59.7329 17.4457 60.7333 17.4457C61.7336 17.4457 62.3284 16.759 62.3284 15.5818H62.3285Z" fill="white"/>
    <path d="M64.604 12.8654H65.7814V13.79H65.81C65.8897 13.5012 66.077 13.246 66.3404 13.0673C66.6038 12.8886 66.9274 12.7972 67.2566 12.8086C67.3989 12.8081 67.5408 12.8221 67.6796 12.8502V13.8931C67.5 13.8436 67.3126 13.8208 67.1249 13.8258C66.9456 13.8192 66.7668 13.8477 66.6008 13.9095C66.4348 13.9712 66.2856 14.0646 66.1634 14.1834C66.0412 14.3021 65.9489 14.4433 65.8928 14.5973C65.8367 14.7513 65.8182 14.9145 65.8385 15.0756V18.2976H64.604L64.604 12.8654Z" fill="white"/>
    <path d="M73.3715 16.7021C73.2054 17.6883 72.1422 18.365 70.7818 18.365C69.0322 18.365 67.9463 17.3062 67.9463 15.6076C67.9463 13.9037 69.0381 12.7986 70.7299 12.7986C72.3939 12.7986 73.4403 13.831 73.4403 15.4781V15.8601H69.1925V15.9275C69.1729 16.1274 69.2006 16.3288 69.2738 16.5183C69.347 16.7078 69.464 16.8811 69.617 17.0266C69.77 17.1722 69.9555 17.2866 70.1613 17.3624C70.3671 17.4382 70.5883 17.4736 70.8104 17.4662C71.1021 17.4909 71.3949 17.4299 71.6451 17.2922C71.8954 17.1545 72.0897 16.9476 72.1993 16.7021L73.3715 16.7021ZM69.1983 15.0808H72.2051C72.2162 14.9011 72.186 14.7212 72.1165 14.5525C72.047 14.3837 71.9396 14.2298 71.801 14.1004C71.6625 13.9709 71.4959 13.8687 71.3115 13.8002C71.1272 13.7316 70.9292 13.6983 70.7299 13.7021C70.5289 13.701 70.3296 13.7359 70.1436 13.8048C69.9576 13.8736 69.7885 13.9751 69.6461 14.1032C69.5037 14.2314 69.3908 14.3838 69.3139 14.5516C69.2371 14.7194 69.1978 14.8993 69.1983 15.0808V15.0808Z" fill="white"/>
    <path d="M25.8365 5.23859C26.0953 5.22181 26.355 5.25713 26.5969 5.34199C26.8388 5.42685 27.0568 5.55914 27.2352 5.72931C27.4136 5.89949 27.548 6.10331 27.6286 6.32607C27.7093 6.54883 27.7342 6.78499 27.7016 7.01749C27.7016 8.16124 27.0172 8.81869 25.8365 8.81869H24.4048V5.23859H25.8365ZM25.0204 8.31239H25.7677C25.9527 8.32238 26.1378 8.29499 26.3095 8.23222C26.4812 8.16945 26.6353 8.07288 26.7605 7.94954C26.8858 7.8262 26.9789 7.6792 27.0333 7.51923C27.0877 7.35925 27.1019 7.19034 27.0749 7.02479C27.0999 6.85989 27.0843 6.69203 27.0291 6.53323C26.9739 6.37443 26.8805 6.22863 26.7555 6.10627C26.6306 5.98391 26.4773 5.88803 26.3065 5.82549C26.1357 5.76294 25.9517 5.73529 25.7677 5.74452H25.0204V8.31239Z" fill="white"/>
    <path d="M28.3968 7.46659C28.378 7.28903 28.4005 7.10989 28.4628 6.94065C28.5252 6.77141 28.626 6.61581 28.7588 6.48382C28.8916 6.35183 29.0535 6.24637 29.2341 6.1742C29.4147 6.10204 29.61 6.06476 29.8074 6.06476C30.0049 6.06476 30.2002 6.10204 30.3808 6.1742C30.5614 6.24637 30.7233 6.35183 30.8561 6.48382C30.9889 6.61581 31.0897 6.77141 31.1521 6.94065C31.2144 7.10989 31.2369 7.28903 31.2181 7.46659C31.2372 7.64432 31.215 7.82371 31.1528 7.99322C31.0907 8.16274 30.9899 8.31863 30.8571 8.45088C30.7242 8.58313 30.5622 8.68881 30.3814 8.76113C30.2007 8.83345 30.0051 8.87081 29.8074 8.87081C29.6097 8.87081 29.4142 8.83345 29.2334 8.76113C29.0527 8.68881 28.8907 8.58313 28.7578 8.45088C28.625 8.31863 28.5242 8.16274 28.462 7.99322C28.3999 7.82371 28.3776 7.64432 28.3968 7.46659V7.46659ZM30.6109 7.46659C30.6109 6.88094 30.3196 6.53846 29.8084 6.53846C29.2953 6.53846 29.0066 6.88094 29.0066 7.46659C29.0066 8.05693 29.2953 8.39677 29.8084 8.39677C30.3196 8.39676 30.6109 8.05457 30.6109 7.46659H30.6109Z" fill="white"/>
    <path d="M34.9686 8.81864H34.3562L33.7379 6.82879H33.6912L33.0756 8.81864H32.469L31.6445 6.11688H32.2433L32.7791 8.17848H32.8233L33.4382 6.11688H34.0046L34.6195 8.17848H34.6663L35.1995 6.11688H35.7898L34.9686 8.81864Z" fill="white"/>
    <path d="M36.4829 6.11688H37.0512V6.54608H37.0953C37.1701 6.39193 37.2964 6.26271 37.4564 6.17642C37.6164 6.09014 37.8022 6.0511 37.9879 6.06473C38.1335 6.05485 38.2796 6.07467 38.4155 6.12273C38.5514 6.17079 38.6736 6.24585 38.7731 6.34235C38.8725 6.43886 38.9466 6.55434 38.9899 6.68023C39.0333 6.80612 39.0446 6.9392 39.0233 7.06961V8.81861H38.433V7.20351C38.433 6.76933 38.2241 6.55341 37.7875 6.55341C37.6887 6.54925 37.59 6.56444 37.4983 6.59794C37.4066 6.63144 37.324 6.68245 37.2562 6.74748C37.1883 6.81251 37.1368 6.89002 37.1053 6.9747C37.0737 7.05938 37.0628 7.14922 37.0732 7.23807V8.81864H36.4829L36.4829 6.11688Z" fill="white"/>
    <path d="M39.9644 5.06219H40.5547V8.81864H39.9644V5.06219Z" fill="white"/>
    <path d="M41.3748 7.4666C41.356 7.28904 41.3785 7.10989 41.4409 6.94064C41.5032 6.7714 41.6041 6.61579 41.7369 6.48379C41.8697 6.3518 42.0316 6.24634 42.2122 6.17417C42.3928 6.10201 42.5881 6.06473 42.7856 6.06473C42.9831 6.06473 43.1784 6.10201 43.359 6.17417C43.5396 6.24634 43.7015 6.3518 43.8343 6.48379C43.9672 6.61579 44.068 6.7714 44.1304 6.94064C44.1927 7.10989 44.2152 7.28904 44.1964 7.4666C44.2156 7.64435 44.1933 7.82374 44.1311 7.99325C44.0689 8.16276 43.9682 8.31865 43.8353 8.4509C43.7024 8.58314 43.5404 8.68882 43.3596 8.76114C43.1789 8.83345 42.9833 8.87081 42.7856 8.87081C42.5879 8.87081 42.3924 8.83345 42.2116 8.76114C42.0308 8.68882 41.8688 8.58314 41.7359 8.4509C41.6031 8.31865 41.5023 8.16276 41.4401 7.99325C41.3779 7.82374 41.3557 7.64435 41.3748 7.4666V7.4666ZM43.5889 7.4666C43.5889 6.88096 43.2976 6.53848 42.7864 6.53848C42.2733 6.53848 41.9846 6.88096 41.9846 7.46661C41.9846 8.05695 42.2733 8.39679 42.7864 8.39679C43.2976 8.39678 43.5889 8.05459 43.5889 7.4666H43.5889Z" fill="white"/>
    <path d="M44.8184 8.0546C44.8184 7.56827 45.2193 7.2879 45.9309 7.24805L46.7412 7.20587V6.97267C46.7412 6.68731 46.5323 6.52618 46.1288 6.52618C45.7992 6.52618 45.5709 6.63546 45.5054 6.82648H44.9338C44.9942 6.36241 45.4775 6.06476 46.156 6.06476C46.9059 6.06476 47.3289 6.40196 47.3289 6.97267V8.81866H46.7606V8.43898H46.7139C46.6191 8.57517 46.486 8.6862 46.3281 8.76073C46.1703 8.83525 45.9934 8.87061 45.8154 8.86318C45.6899 8.87497 45.5629 8.86287 45.4429 8.82765C45.3228 8.79243 45.2122 8.73488 45.1183 8.6587C45.0243 8.58252 44.9491 8.4894 44.8975 8.38535C44.8458 8.2813 44.8189 8.16863 44.8184 8.0546V8.0546ZM46.7412 7.82374V7.59786L46.0107 7.64005C45.5988 7.66495 45.4119 7.79151 45.4119 8.02969C45.4119 8.27285 45.6455 8.41436 45.9666 8.41436C46.0607 8.42296 46.1557 8.41438 46.2461 8.38913C46.3364 8.36387 46.4202 8.32246 46.4925 8.26736C46.5648 8.21225 46.624 8.14458 46.6667 8.06837C46.7095 7.99216 46.7348 7.90896 46.7412 7.82374V7.82374Z" fill="white"/>
    <path d="M48.1045 7.4666C48.1045 6.61289 48.5904 6.07207 49.3461 6.07207C49.5331 6.06429 49.7186 6.10473 49.881 6.18867C50.0435 6.2726 50.1761 6.39657 50.2634 6.54607H50.3075V5.06219H50.8979V8.81864H50.3322V8.39178H50.2855C50.1914 8.54028 50.0542 8.6627 49.8886 8.74579C49.723 8.82887 49.5354 8.86947 49.3461 8.86316C48.5852 8.86319 48.1045 8.32236 48.1045 7.4666ZM48.7143 7.4666C48.7143 8.03965 49.0134 8.38447 49.5135 8.38447C50.0111 8.38447 50.3186 8.03467 50.3186 7.46894C50.3186 6.90586 50.0079 6.55107 49.5135 6.55107C49.0166 6.55107 48.7143 6.89824 48.7143 7.4666H48.7143Z" fill="white"/>
    <path d="M53.3402 7.46659C53.3214 7.28903 53.3438 7.10989 53.4062 6.94065C53.4685 6.77141 53.5693 6.61581 53.7022 6.48382C53.835 6.35183 53.9969 6.24637 54.1774 6.1742C54.358 6.10204 54.5533 6.06476 54.7508 6.06476C54.9483 6.06476 55.1436 6.10204 55.3242 6.1742C55.5047 6.24637 55.6666 6.35183 55.7994 6.48382C55.9323 6.61581 56.0331 6.77141 56.0954 6.94065C56.1578 7.10989 56.1802 7.28903 56.1614 7.46659C56.1806 7.64432 56.1584 7.82371 56.0962 7.99322C56.034 8.16274 55.9333 8.31863 55.8004 8.45088C55.6676 8.58313 55.5056 8.68881 55.3248 8.76113C55.144 8.83345 54.9485 8.87081 54.7508 8.87081C54.5531 8.87081 54.3576 8.83345 54.1768 8.76113C53.996 8.68881 53.834 8.58313 53.7012 8.45088C53.5683 8.31863 53.4676 8.16274 53.4054 7.99322C53.3432 7.82371 53.321 7.64432 53.3402 7.46659V7.46659ZM55.5542 7.46659C55.5542 6.88094 55.263 6.53846 54.7518 6.53846C54.2386 6.53846 53.95 6.88094 53.95 7.46659C53.95 8.05693 54.2387 8.39677 54.7518 8.39677C55.263 8.39676 55.5542 8.05457 55.5542 7.46659Z" fill="white"/>
    <path d="M56.9536 6.11688H57.5219V6.54608H57.566C57.6408 6.39193 57.7671 6.26271 57.9271 6.17642C58.0871 6.09014 58.2729 6.0511 58.4586 6.06473C58.6042 6.05485 58.7503 6.07467 58.8862 6.12273C59.0221 6.17079 59.1443 6.24585 59.2438 6.34235C59.3432 6.43886 59.4173 6.55434 59.4606 6.68023C59.504 6.80612 59.5153 6.9392 59.494 7.06961V8.81861H58.9037V7.20351C58.9037 6.76933 58.6948 6.55341 58.2582 6.55341C58.1594 6.54925 58.0607 6.56444 57.969 6.59794C57.8773 6.63144 57.7947 6.68245 57.7269 6.74748C57.659 6.81251 57.6075 6.89002 57.576 6.9747C57.5444 7.05938 57.5335 7.14922 57.5439 7.23807V8.81864H56.9536V6.11688Z" fill="white"/>
    <path d="M62.8295 5.44424V6.1292H63.4776V6.57833H62.8295V7.96759C62.8295 8.25059 62.9586 8.37452 63.2525 8.37452C63.3277 8.3743 63.4029 8.37019 63.4776 8.36221V8.80635C63.3716 8.82348 63.2642 8.83259 63.1565 8.8336C62.5 8.8336 62.2385 8.625 62.2385 8.1041V6.5783H61.7637V6.12918H62.2385V5.44424H62.8295Z" fill="white"/>
    <path d="M64.2842 5.06219H64.8693V6.55106H64.916C64.9945 6.39547 65.1242 6.26552 65.2874 6.17891C65.4506 6.0923 65.6394 6.05325 65.8281 6.06708C65.9729 6.05996 66.1176 6.0818 66.252 6.13102C66.3864 6.18025 66.507 6.25565 66.6054 6.35185C66.7038 6.44806 66.7775 6.56269 66.8212 6.68757C66.8649 6.81245 66.8776 6.9445 66.8582 7.07431V8.81864H66.2673V7.20584C66.2673 6.7743 66.0448 6.55574 65.6277 6.55574C65.5262 6.54823 65.4242 6.56083 65.3287 6.59266C65.2332 6.62449 65.1465 6.67479 65.0748 6.74003C65.003 6.80527 64.9479 6.88389 64.9134 6.97037C64.8788 7.05685 64.8655 7.14911 64.8745 7.2407V8.81863H64.2842L64.2842 5.06219Z" fill="white"/>
    <path d="M70.3005 8.08915C70.2203 8.33608 70.0465 8.54967 69.8096 8.69256C69.5727 8.83545 69.2876 8.89854 69.0044 8.87079C68.8073 8.87549 68.6115 8.8414 68.4305 8.77088C68.2494 8.70036 68.0876 8.59511 67.9561 8.46243C67.8246 8.32975 67.7267 8.17281 67.6691 8.00252C67.6115 7.83223 67.5957 7.65265 67.6226 7.47627C67.5964 7.29934 67.6125 7.11938 67.67 6.94857C67.7274 6.77777 67.8248 6.62011 67.9556 6.48626C68.0864 6.35242 68.2475 6.24552 68.428 6.17279C68.6085 6.10007 68.8042 6.06322 69.0018 6.06474C69.8341 6.06474 70.3362 6.57834 70.3362 7.42674V7.6128H68.224V7.64268C68.2147 7.74182 68.2285 7.84162 68.2645 7.93567C68.3004 8.02972 68.3578 8.11595 68.4328 8.18882C68.5078 8.26169 68.5988 8.31961 68.7 8.35885C68.8013 8.39808 68.9104 8.41778 69.0206 8.41668C69.1618 8.43199 69.3049 8.40902 69.4316 8.3507C69.5583 8.29237 69.663 8.20133 69.7322 8.08914L70.3005 8.08915ZM68.224 7.21845H69.7348C69.7423 7.12778 69.7286 7.0367 69.6948 6.95107C69.6609 6.86543 69.6076 6.78715 69.5383 6.72123C69.4689 6.65532 69.3851 6.60323 69.2921 6.56833C69.1992 6.53342 69.0992 6.51647 68.9985 6.51855C68.8964 6.51739 68.7951 6.53471 68.7005 6.56948C68.606 6.60424 68.52 6.65576 68.4479 6.72099C68.3757 6.78621 68.3187 6.86383 68.2802 6.94927C68.2418 7.03471 68.2226 7.12623 68.224 7.21845H68.224Z" fill="white"/>
  </svg>